<?xml version="1.0" encoding="UTF-8" standalone="no"?><svg xmlns="http://www.w3.org/2000/svg" xmlns:xlink="http://www.w3.org/1999/xlink" contentScriptType="application/ecmascript" contentStyleType="text/css" height="319px" preserveAspectRatio="none" style="width:204px;height:319px;" version="1.1" viewBox="0 0 204 319" width="204px" zoomAndPan="magnify"><defs><filter height="300%" id="f1n890s38fjk64" width="300%" x="-1" y="-1"><feGaussianBlur result="blurOut" stdDeviation="2.0"/><feColorMatrix in="blurOut" result="blurOut2" type="matrix" values="0 0 0 0 0 0 0 0 0 0 0 0 0 0 0 0 0 0 .4 0"/><feOffset dx="4.0" dy="4.0" in="blurOut2" result="blurOut3"/><feBlend in="SourceGraphic" in2="blurOut3" mode="normal"/></filter></defs><g><!--MD5=[9a247f74696882179a492ab5ab0ccb2c]
class config--><rect codeLine="1" fill="#FEFECE" filter="url(#f1n890s38fjk64)" height="48" id="config" style="stroke:#A80036;stroke-width:1.5;" width="69" x="94" y="7"/><ellipse cx="109" cy="23" fill="#ADD1B2" rx="11" ry="11" style="stroke:#A80036;stroke-width:1.0;"/><path d="M111.3438,18.6719 C110.4063,18.2344 109.8125,18.0938 108.9375,18.0938 C106.3125,18.0938 104.3125,20.1719 104.3125,22.8906 L104.3125,24.0156 C104.3125,26.5938 106.4219,28.4844 109.3125,28.4844 C110.5313,28.4844 111.6875,28.1875 112.4375,27.6406 C113.0156,27.2344 113.3438,26.7813 113.3438,26.3906 C113.3438,25.9375 112.9531,25.5469 112.4844,25.5469 C112.2656,25.5469 112.0625,25.625 111.875,25.8125 C111.4219,26.2969 111.4219,26.2969 111.2344,26.3906 C110.8125,26.6563 110.125,26.7813 109.3594,26.7813 C107.3125,26.7813 106.0156,25.6875 106.0156,23.9844 L106.0156,22.8906 C106.0156,21.1094 107.2656,19.7969 109,19.7969 C109.5781,19.7969 110.1875,19.9531 110.6563,20.2031 C111.1406,20.4844 111.3125,20.7031 111.4063,21.1094 C111.4688,21.5156 111.5,21.6406 111.6406,21.7656 C111.7813,21.9063 112.0156,22.0156 112.2344,22.0156 C112.5,22.0156 112.7656,21.875 112.9375,21.6563 C113.0469,21.5 113.0781,21.3125 113.0781,20.8906 L113.0781,19.4688 C113.0781,19.0313 113.0625,18.9063 112.9688,18.75 C112.8125,18.4844 112.5313,18.3438 112.2344,18.3438 C111.9375,18.3438 111.7344,18.4375 111.5156,18.75 L111.3438,18.6719 Z " fill="#000000"/><text fill="#000000" font-family="sans-serif" font-size="12" lengthAdjust="spacingAndGlyphs" textLength="37" x="123" y="27.1543">config</text><line style="stroke:#A80036;stroke-width:1.5;" x1="95" x2="162" y1="39" y2="39"/><line style="stroke:#A80036;stroke-width:1.5;" x1="95" x2="162" y1="47" y2="47"/><!--MD5=[117faa70a207c4f66bbac0df7bb8a991]
class metric--><rect codeLine="2" fill="#FEFECE" filter="url(#f1n890s38fjk64)" height="48" id="metric" style="stroke:#A80036;stroke-width:1.5;" width="70" x="76.5" y="257"/><ellipse cx="91.5" cy="273" fill="#ADD1B2" rx="11" ry="11" style="stroke:#A80036;stroke-width:1.0;"/><path d="M93.8438,268.6719 C92.9063,268.2344 92.3125,268.0938 91.4375,268.0938 C88.8125,268.0938 86.8125,270.1719 86.8125,272.8906 L86.8125,274.0156 C86.8125,276.5938 88.9219,278.4844 91.8125,278.4844 C93.0313,278.4844 94.1875,278.1875 94.9375,277.6406 C95.5156,277.2344 95.8438,276.7813 95.8438,276.3906 C95.8438,275.9375 95.4531,275.5469 94.9844,275.5469 C94.7656,275.5469 94.5625,275.625 94.375,275.8125 C93.9219,276.2969 93.9219,276.2969 93.7344,276.3906 C93.3125,276.6563 92.625,276.7813 91.8594,276.7813 C89.8125,276.7813 88.5156,275.6875 88.5156,273.9844 L88.5156,272.8906 C88.5156,271.1094 89.7656,269.7969 91.5,269.7969 C92.0781,269.7969 92.6875,269.9531 93.1563,270.2031 C93.6406,270.4844 93.8125,270.7031 93.9063,271.1094 C93.9688,271.5156 94,271.6406 94.1406,271.7656 C94.2813,271.9063 94.5156,272.0156 94.7344,272.0156 C95,272.0156 95.2656,271.875 95.4375,271.6563 C95.5469,271.5 95.5781,271.3125 95.5781,270.8906 L95.5781,269.4688 C95.5781,269.0313 95.5625,268.9063 95.4688,268.75 C95.3125,268.4844 95.0313,268.3438 94.7344,268.3438 C94.4375,268.3438 94.2344,268.4375 94.0156,268.75 L93.8438,268.6719 Z " fill="#000000"/><text fill="#000000" font-family="sans-serif" font-size="12" lengthAdjust="spacingAndGlyphs" textLength="38" x="105.5" y="277.1543">metric</text><line style="stroke:#A80036;stroke-width:1.5;" x1="77.5" x2="145.5" y1="289" y2="289"/><line style="stroke:#A80036;stroke-width:1.5;" x1="77.5" x2="145.5" y1="297" y2="297"/><!--MD5=[a4ae7460e01b40d40c4babe36fa9b643]
class scraper--><rect codeLine="3" fill="#FEFECE" filter="url(#f1n890s38fjk64)" height="48" id="scraper" style="stroke:#A80036;stroke-width:1.5;" width="79" x="7" y="132"/><ellipse cx="22" cy="148" fill="#ADD1B2" rx="11" ry="11" style="stroke:#A80036;stroke-width:1.0;"/><path d="M24.3438,143.6719 C23.4063,143.2344 22.8125,143.0938 21.9375,143.0938 C19.3125,143.0938 17.3125,145.1719 17.3125,147.8906 L17.3125,149.0156 C17.3125,151.5938 19.4219,153.4844 22.3125,153.4844 C23.5313,153.4844 24.6875,153.1875 25.4375,152.6406 C26.0156,152.2344 26.3438,151.7813 26.3438,151.3906 C26.3438,150.9375 25.9531,150.5469 25.4844,150.5469 C25.2656,150.5469 25.0625,150.625 24.875,150.8125 C24.4219,151.2969 24.4219,151.2969 24.2344,151.3906 C23.8125,151.6563 23.125,151.7813 22.3594,151.7813 C20.3125,151.7813 19.0156,150.6875 19.0156,148.9844 L19.0156,147.8906 C19.0156,146.1094 20.2656,144.7969 22,144.7969 C22.5781,144.7969 23.1875,144.9531 23.6563,145.2031 C24.1406,145.4844 24.3125,145.7031 24.4063,146.1094 C24.4688,146.5156 24.5,146.6406 24.6406,146.7656 C24.7813,146.9063 25.0156,147.0156 25.2344,147.0156 C25.5,147.0156 25.7656,146.875 25.9375,146.6563 C26.0469,146.5 26.0781,146.3125 26.0781,145.8906 L26.0781,144.4688 C26.0781,144.0313 26.0625,143.9063 25.9688,143.75 C25.8125,143.4844 25.5313,143.3438 25.2344,143.3438 C24.9375,143.3438 24.7344,143.4375 24.5156,143.75 L24.3438,143.6719 Z " fill="#000000"/><text fill="#000000" font-family="sans-serif" font-size="12" lengthAdjust="spacingAndGlyphs" textLength="47" x="36" y="152.1543">scraper</text><line style="stroke:#A80036;stroke-width:1.5;" x1="8" x2="85" y1="164" y2="164"/><line style="stroke:#A80036;stroke-width:1.5;" x1="8" x2="85" y1="172" y2="172"/><!--MD5=[a4e80ed52eb312e14de30a80a0212115]
reverse link config to scraper--><path codeLine="5" d="M105.7279,66.158 C91.7427,87.136 74.2047,113.443 61.8544,131.968 " fill="none" id="config-backto-scraper" style="stroke:#A80036;stroke-width:1.0;"/><polygon fill="#FFFFFF" points="113.076,55.135,106.4195,57.9083,106.4194,65.1194,113.0758,62.3461,113.076,55.135" style="stroke:#A80036;stroke-width:1.0;"/><text fill="#000000" font-family="sans-serif" font-size="13" lengthAdjust="spacingAndGlyphs" textLength="30" x="93.5" y="98.0669">uses</text><!--MD5=[314dc34b82ee50cdb43140801312b2e8]
reverse link metric to config--><path codeLine="6" d="M129.137,244.7681 C131.355,238.9596 133.274,232.9049 134.5,227 C147.169,165.98 138.527,91.939 132.663,55.118 " fill="none" id="metric-backto-config" style="stroke:#A80036;stroke-width:1.0;"/><polygon fill="#FFFFFF" points="123.954,256.9366,129.9854,252.9841,128.6566,245.8964,122.6253,249.849,123.954,256.9366" style="stroke:#A80036;stroke-width:1.0;"/><text fill="#000000" font-family="sans-serif" font-size="13" lengthAdjust="spacingAndGlyphs" textLength="54" x="142.5" y="160.5669">contains</text><!--MD5=[cf99763f14637c9bb73a51d7365363d7]
reverse link scraper to metric--><path codeLine="7" d="M64.135,191.723 C69.925,203.006 76.4319,215.564 82.5,227 C87.7112,236.8211 93.5789,247.5959 98.6659,256.8507 " fill="none" id="scraper-backto-metric" style="stroke:#A80036;stroke-width:1.0;"/><polygon fill="#FFFFFF" points="58.1883,180.092,57.3578,187.2551,63.6505,190.7768,64.481,183.6137,58.1883,180.092" style="stroke:#A80036;stroke-width:1.0;"/><text fill="#000000" font-family="sans-serif" font-size="13" lengthAdjust="spacingAndGlyphs" textLength="46" x="83.5" y="223.0669">returns</text><!--MD5=[231c3dfad1b083f0bf055f4047298a17]
@startuml
class config
class metric
class scraper

config o- - scraper : uses
metric o- - config : contains
scraper o- - metric : returns
@enduml

PlantUML version 1.2020.27beta1(Unknown compile time)
(GPL source distribution)
Java Runtime: Java(TM) SE Runtime Environment
JVM: Java HotSpot(TM) 64-Bit Server VM
Default Encoding: UTF-8
Language: en
Country: US
--></g></svg>